<?xml version="1.0" encoding="utf-8"?>
<!-- Generator: Adobe Illustrator 23.1.0, SVG Export Plug-In . SVG Version: 6.00 Build 0)  -->
<svg version="1.1" id="Layer_1" xmlns="http://www.w3.org/2000/svg" xmlns:xlink="http://www.w3.org/1999/xlink" x="0px" y="0px"
	 viewBox="0 0 104.8 100" style="enable-background:new 0 0 104.8 100;" xml:space="preserve">
<style type="text/css">
	.st0{fill:#1484B7;}
	.st1{fill:#4EB5E4;}
	.st2{fill:#2B97D3;}
</style>
<title>Artboard 46</title>
<g id="XMLID_1_">
	<g id="XMLID_2_">
		<g id="XMLID_5_">
			<path class="st0" d="M57.6,1.8L31,82.2H1.4c-1,0-1.6-1.1-1-1.9l55-79.6C56.2-0.5,58,0.4,57.6,1.8z"/>
		</g>
		<g id="XMLID_4_">
			<path class="st1" d="M24.9,82.2l18.7,17.6c0.7,0.7,2,0.2,2.1-0.8l8.1-85.5L24.9,82.2z"/>
		</g>
		<g id="XMLID_3_">
			<path class="st2" d="M47.3,1.8l26.5,79.6c0.2,0.5,0.6,0.9,1.2,0.9h28.7c1,0,1.6-1.1,1-1.9L49.5,0.7C48.7-0.5,46.9,0.4,47.3,1.8z"
				/>
		</g>
	</g>
</g>
</svg>
